<svg width="14px" height="14px" viewBox="93 5 14 14" version="1.1" xmlns="http://www.w3.org/2000/svg" xmlns:xlink="http://www.w3.org/1999/xlink">
  <defs></defs>
  <path d="M101.735412,11.5000037 L106.744146,6.49129925 C107.085285,6.1501305 107.085285,5.59702312 106.744146,5.25585436 C106.403006,4.91471521 105.84984,4.91471521 105.50873,5.25585436 L100.499996,10.2645884 L95.4912919,5.25585436 C95.1501527,4.91474483 94.5969861,4.91474483 94.2558766,5.25585436 C93.9147078,5.59702312 93.9147078,6.1501305 94.2558766,6.49129925 L99.264581,11.5000037 L94.2558766,16.5087081 C93.9147078,16.8498769 93.9147078,17.4029547 94.2558766,17.7441234 C94.4264461,17.9147226 94.649993,18.0000074 94.8735694,18.0000074 C95.0971458,18.0000074 95.3207223,17.9147226 95.4912919,17.7441234 L100.499996,12.735419 L105.50873,17.744153 C105.6793,17.9147522 105.902847,18.0000074 106.126423,18.0000074 C106.35,18.0000074 106.573576,17.9147522 106.744146,17.744153 C107.085285,17.4029843 107.085285,16.8499065 106.744146,16.5087378 L101.735412,11.5000037 Z" id="Fill-1" stroke="none" fill="#FF6666" fill-rule="evenodd"></path>
</svg>
