<svg width="21px" height="20px" viewBox="0 -1 21 20" version="1.1" xmlns="http://www.w3.org/2000/svg" xmlns:xlink="http://www.w3.org/1999/xlink">
    <path d="M9.70788172,14.2415379 C9.71499671,14.249644 9.72500082,14.2525605 9.73190021,14.2593799 C9.80287762,14.3352512 9.89024107,14.3908788 9.98049363,14.4420887 C10.0121446,14.4599307 10.0371979,14.4885379 10.0707462,14.5027343 C10.1987298,14.5591339 10.3388304,14.5925018 10.4876846,14.5925018 C10.6365819,14.5925018 10.7769413,14.5591339 10.9046661,14.5027343 C10.9373951,14.4882806 10.9605943,14.4622896 10.9907359,14.444705 C11.0836189,14.3922084 11.1717585,14.3357659 11.243814,14.2591226 C11.2503684,14.2510165 11.2606743,14.2494296 11.2683068,14.2412806 L17.3564957,7.35135734 C17.7355306,6.9229781 17.6935306,6.27020158 17.2623191,5.89303228 C16.8324012,5.51607743 16.1747606,5.55703679 15.7963725,5.98696005 L11.5272062,10.8182354 L11.5272062,1.033407 C11.5272062,0.463020993 11.0622308,-1.28668172e-05 10.4879433,-1.28668172e-05 C9.91369897,-1.28668172e-05 9.44898234,0.462763657 9.44898234,1.033407 L9.44898234,10.8182354 L5.18063532,5.98751761 C4.80194538,5.55755147 4.14348542,5.5165921 3.71438686,5.89350406 C3.28347721,6.27020158 3.24095975,6.9229781 3.62021027,7.35187201 L9.70788172,14.2415379 Z M19.9380296,10.4179488 C19.3637421,10.4179488 18.8990255,10.8801677 18.8990255,11.451626 L18.8990255,16.9031248 L2.07798234,16.9031248 L2.07798234,11.2494883 C2.07798234,10.6778156 1.61270513,10.2161113 1.03897823,10.2161113 C0.465251335,10.2161113 1.72484597e-05,10.6778156 1.72484597e-05,11.2494883 L1.72484597e-05,17.9359871 C1.72484597e-05,18.5074025 0.465251335,18.9696214 1.03897823,18.9696214 L19.9380296,18.9696214 C20.5125326,18.9696214 20.9772493,18.5074025 20.9772493,17.9359871 L20.9772493,11.4513257 C20.9772493,10.8799104 20.5125326,10.4179488 19.9380296,10.4179488 L19.9380296,10.4179488 Z" id="Fill-1" stroke="none" fill="#00CC99" fill-rule="evenodd"></path>
</svg>
