<svg width="19px" height="18px" viewBox="-1 0 19 18" version="1.1" xmlns="http://www.w3.org/2000/svg" xmlns:xlink="http://www.w3.org/1999/xlink">
  <defs></defs>
  <path d="M14.9210192,3.82722647 L14.1513357,3.05413824 L15.1803308,2.02343235 L15.9500144,2.79437353 L14.9210192,3.82722647 Z M8.05623622,10.7032265 L6.70914323,11.2794029 L7.28637651,9.93013824 L13.2643145,3.94457941 L14.033998,4.71555 L8.05623622,10.7032265 Z M17.7258773,2.20346176 L15.7722754,0.246667647 C15.4459556,-0.0821852941 14.9147354,-0.0821852941 14.5883863,0.246667647 L12.8398316,1.99807941 C12.8335478,2.00222647 12.8272639,2.00852059 12.8209507,2.01696176 L12.8188072,2.01696176 L5.98978923,8.85949118 C5.91450049,8.93490294 5.85374682,9.02490294 5.81207961,9.12137353 L4.34800131,12.5446382 C4.21413181,12.8589324 4.28528026,13.2234029 4.52571093,13.4664029 C4.68674192,13.6276676 4.90004046,13.7115794 5.11768483,13.7115794 C5.22856248,13.7115794 5.3414075,13.6906971 5.44814486,13.6446382 L8.86385775,12.1801382 C8.96213834,12.1381971 9.05002414,12.0775206 9.12531289,12.0021088 L17.7260535,3.38731471 C18.0522264,3.06043235 18.0522264,2.53034412 17.7258773,2.20346176 L17.7258773,2.20346176 Z M14.4323765,17.9709029 L0.836709299,17.9709029 C0.374699511,17.9709029 -1.17455138e-05,17.5956088 -1.17455138e-05,17.1328147 L-1.17455138e-05,3.51493235 C-1.17455138e-05,3.05213824 0.374699511,2.67684412 0.836709299,2.67684412 L7.63448418,2.67684412 C8.09649396,2.67684412 8.47117586,3.05213824 8.47117586,3.51493235 C8.47117586,3.97772647 8.09649396,4.35299118 7.63448418,4.35299118 L1.67325416,4.35299118 L1.67325416,16.2949324 L13.5956848,16.2949324 L13.5956848,10.3239618 C13.5956848,9.86119706 13.9703667,9.48590294 14.4323765,9.48590294 C14.894445,9.48590294 15.2690976,9.86119706 15.2690976,10.3239618 L15.2690976,17.1328147 C15.2689507,17.5956088 14.894445,17.9709029 14.4323765,17.9709029 L14.4323765,17.9709029 Z" id="Fill-1" stroke="none" fill="#00CC99" fill-rule="evenodd"></path>
</svg>
