<svg width="14px" height="14px" viewBox="618 960 14 14" version="1.1" xmlns="http://www.w3.org/2000/svg" xmlns:xlink="http://www.w3.org/1999/xlink">
  <path d="M626.735412,966.500004 L631.744146,961.491299 C632.085285,961.15013 632.085285,960.597023 631.744146,960.255854 C631.403006,959.914715 630.84984,959.914715 630.50873,960.255854 L625.499996,965.264588 L620.491292,960.255854 C620.150153,959.914745 619.596986,959.914745 619.255877,960.255854 C618.914708,960.597023 618.914708,961.15013 619.255877,961.491299 L624.264581,966.500004 L619.255877,971.508708 C618.914708,971.849877 618.914708,972.402955 619.255877,972.744123 C619.426446,972.914723 619.649993,973.000007 619.873569,973.000007 C620.097146,973.000007 620.320722,972.914723 620.491292,972.744123 L625.499996,967.735419 L630.50873,972.744153 C630.6793,972.914752 630.902847,973.000007 631.126423,973.000007 C631.35,973.000007 631.573576,972.914752 631.744146,972.744153 C632.085285,972.402984 632.085285,971.849907 631.744146,971.508738 L626.735412,966.500004 Z" id="Fill-1" stroke="none" fill="#FFFFFF" fill-rule="evenodd"></path>
</svg>
